<?xml version="1.0" encoding="UTF-8"?>
<svg id="Layer_2" data-name="Layer 2" xmlns="http://www.w3.org/2000/svg" viewBox="0 0 149.78 17.19">
  <defs>
    <style>
      .cls-1 {
        fill: #fff;
      }

      .cls-2 {
        fill: #20d899;
      }
    </style>
  </defs>
  <g id="Layer_1-2" data-name="Layer 1">
    <g id="x1jKqR">
      <g>
        <g>
          <path class="cls-2" d="M55.69,17.13V.2c.42,0,.8,0,1.18,0,2.51,0,5.02,0,7.53,0,1.12,0,2.2,.21,3.19,.75,1.22,.66,1.9,1.7,2.13,3.06,.13,.77,.11,1.53-.06,2.29-.2,.9-.69,1.61-1.46,2.13-.09,.06-.18,.12-.28,.19,.06,.05,.1,.09,.15,.12,1.16,.76,1.72,1.85,1.8,3.21,.06,.98-.08,1.93-.54,2.81-.53,.99-1.38,1.6-2.42,1.99-.97,.36-1.98,.44-3,.44-2.52,0-5.03-.01-7.55-.02-.22,0-.44-.02-.67-.03Zm3.4-3.45c.06,0,.1,0,.13,0,1.32,0,2.63,0,3.95,0,.6,0,1.2-.02,1.79-.07,.77-.07,1.23-.47,1.36-1.15,.05-.27,.06-.54,.05-.82,0-.67-.34-1.15-.97-1.35-.37-.11-.77-.18-1.16-.18-1.63-.02-3.25,0-4.88,0-.09,0-.17,0-.27,.01v3.56Zm0-6.59c1.12,0,2.21,0,3.3,0,.78,0,1.55-.01,2.33-.04,.44-.01,.85-.16,1.19-.45,.18-.16,.31-.36,.34-.6,.03-.28,.05-.57,.04-.86-.02-.65-.41-1.15-1.04-1.33-.3-.08-.61-.14-.92-.15-1.66-.02-3.32-.01-4.98-.01-.09,0-.17,0-.26,0v3.44Z"/>
          <path class="cls-2" d="M30.78,10.51c1.26,2.2,2.51,4.38,3.78,6.58-.09,.02-.15,.04-.22,.04-1.04,.02-2.07,.05-3.11,.06-.37,0-.61-.19-.79-.5-1.08-1.87-2.17-3.73-3.25-5.6-.09-.15-.2-.24-.38-.24-1,0-2.01,0-3.01,0-.03,0-.06,.01-.11,.02v6.27h-3.41c0-.13-.02-.28-.02-.43,0-2.09,0-4.18,0-6.27,0-.91,.03-1.82,.04-2.73,0-.27,.01-.27,.28-.27,2.63,0,5.26,.02,7.9,.03,.3,0,.59-.06,.88-.12,.36-.07,.65-.27,.84-.58,.41-.71,.5-1.44,.13-2.2-.27-.55-.72-.83-1.34-.84-2.82-.01-5.63-.03-8.45-.04-.08,0-.15,0-.26,0V.23c.19-.01,.37-.04,.55-.04,2.6,0,5.2,0,7.8,0,.9,0,1.77,.13,2.59,.52,1.38,.65,2.28,1.69,2.63,3.18,.38,1.61,.21,3.14-.62,4.58-.5,.87-1.22,1.49-2.13,1.89-.1,.04-.2,.09-.32,.14Z"/>
          <path class="cls-2" d="M54.17,17.16c-.61,0-1.18,0-1.76,0-.52,0-1.04,0-1.56,0-.35,0-.46-.08-.58-.4-1.57-4.21-3.15-8.43-4.72-12.64-.09-.25-.19-.41-.5-.41-.55,0-.56-.03-.76,.5-1.07,2.74-2.14,5.47-3.2,8.21-.59,1.51-1.18,3.03-1.77,4.54-.06,.14-.12,.19-.28,.18-1.07,0-2.15,0-3.22,0-.18,0-.25-.07-.24-.23,0-.11,.02-.22,.06-.31,.94-2.39,1.88-4.77,2.81-7.16,1.19-3.05,2.38-6.1,3.56-9.15,.08-.19,.18-.25,.38-.25,1.71,0,3.42,0,5.13-.03,.2,0,.29,.07,.35,.25,1.01,2.67,2.03,5.34,3.03,8.01,1.07,2.85,2.11,5.71,3.16,8.57,.03,.09,.06,.18,.11,.33Z"/>
          <path class="cls-2" d="M18.63,17.15c-.31,0-.59,0-.87,0-.8,0-1.6,0-2.4,0-.46,0-.51-.04-.68-.48-1.55-4.15-3.1-8.31-4.65-12.46q-.18-.5-.71-.51t-.52,.34c-1.68,4.29-3.35,8.58-5.02,12.87-.06,.16-.14,.23-.32,.23-1.05-.01-2.1,0-3.15,0-.25,0-.34-.12-.29-.37,.01-.06,.04-.12,.06-.18,1.56-3.99,3.13-7.97,4.69-11.96,.56-1.44,1.13-2.87,1.68-4.31,.08-.21,.17-.28,.4-.28,1.73,.01,3.46,0,5.19,0,.14,0,.21,.04,.26,.18,1.16,3.09,2.33,6.17,3.49,9.26,.93,2.48,1.84,4.96,2.76,7.44,.02,.06,.04,.13,.08,.24Z"/>
          <path class="cls-2" d="M87.75,.15c-.07,.08-.1,.12-.15,.17-1.03,1.09-2.06,2.19-3.09,3.27-.06,.07-.19,.11-.28,.11-1.99,0-3.98,0-5.97,.01-.31,0-.62,.03-.93,.08-.72,.11-1.29,.66-1.37,1.44-.07,.64-.03,1.29,.01,1.94,.03,.42,.3,.73,.65,.96,.38,.25,.81,.37,1.26,.38,.65,.02,1.31,.03,1.96,.04,.07,0,.14,0,.25,0-.06,.08-.09,.14-.14,.19-.99,1.06-1.97,2.13-2.96,3.18-.06,.07-.19,.12-.27,.1-1.36-.31-2.57-.89-3.49-1.97-.65-.77-1.01-1.67-1.16-2.65-.21-1.33-.07-2.64,.39-3.9,.31-.86,.89-1.51,1.64-2.03,1.31-.91,2.77-1.29,4.35-1.29,3.04,0,6.08-.02,9.12-.04,.05,0,.1,0,.19,0Z"/>
        </g>
        <g>
          <path class="cls-1" d="M109.84,.1c.95,.06,1.91,.06,2.85,.21,2.81,.45,4.62,2.07,5.41,4.81,.45,1.56,.51,3.15,.4,4.76-.07,1.09-.26,2.15-.68,3.17-.86,2.11-2.44,3.37-4.64,3.87-.62,.14-1.26,.21-1.89,.23-1.18,.03-2.36,.03-3.54-.04-1.76-.09-3.32-.7-4.58-1.97-.93-.94-1.45-2.1-1.74-3.38-.31-1.37-.37-2.77-.28-4.17,.07-1.15,.27-2.28,.72-3.36,.91-2.19,2.59-3.44,4.89-3.89,.5-.1,1.02-.14,1.53-.16,.51-.03,1.03,0,1.54,0,0-.02,0-.05,0-.07Zm.02,3.55v-.04c-.78,.05-1.57,.06-2.34,.16-.97,.13-1.76,.6-2.26,1.48-.29,.5-.43,1.06-.54,1.62-.17,.86-.14,1.74-.1,2.6,.02,.53,.1,1.06,.23,1.58,.33,1.39,1.21,2.26,2.63,2.49,.55,.09,1.11,.1,1.67,.09,.95,0,1.91,.02,2.85-.08,1.48-.17,2.43-1.02,2.78-2.48,.39-1.59,.4-3.19,.01-4.77-.38-1.58-1.38-2.43-3-2.57-.64-.06-1.29-.05-1.94-.07Z"/>
          <path class="cls-1" d="M133.62,.19V3.66c-.13,0-.25,0-.36,0-1.56,0-3.13,0-4.69,0-.64,0-1.27,.05-1.88,.23-1.04,.32-1.71,1.01-2.05,2.04-.18,.55-.3,1.12-.32,1.7-.06,1.2-.08,2.4,.26,3.57,.4,1.4,1.34,2.16,2.75,2.36,.34,.05,.7,.08,1.04,.08,1.66,0,3.32,0,4.98,0,.17,0,.23,.06,.25,.21,.01,.09,.04,.19,.04,.28,0,.89,0,1.78,0,2.67,0,.1-.01,.2-.02,.32-.15,.01-.29,.04-.43,.04-1.7,0-3.39,0-5.09,0-1.23,0-2.41-.24-3.52-.79-1.63-.8-2.66-2.1-3.22-3.8-.53-1.6-.61-3.25-.52-4.92,.06-1.11,.24-2.2,.64-3.24,.89-2.28,2.58-3.59,4.94-4.07,.95-.19,1.91-.19,2.87-.19,1.22,0,2.44,0,3.66,0,.22,0,.44,.02,.67,.04Z"/>
          <path class="cls-1" d="M84.29,3.63c.25-.26,.49-.53,.74-.79,.8-.86,1.61-1.72,2.41-2.57,.06-.06,.16-.11,.24-.11,3.9,0,7.79,.02,11.69,.03,.14,0,.27,0,.27,.2,0,1.02,.02,2.03,.02,3.05,0,.07-.01,.14-.02,.23h-4.62c0,.1,0,.18,0,.26,0,4.31,0,8.62,0,12.93,0,.3,.03,.28-.28,.28-.99,0-1.98,0-2.97,0-.07,0-.14,0-.23-.01V3.68h-7.24l-.02-.05Z"/>
          <path class="cls-1" d="M79.74,8.84c.11-.14,.19-.25,.28-.34,.93-1,1.86-2,2.79-3.01,.11-.12,.22-.16,.38-.12,1.21,.3,2.3,.8,3.18,1.71,.82,.85,1.25,1.88,1.41,3.04,.16,1.19,.04,2.36-.31,3.5-.38,1.23-1.22,2.07-2.34,2.66-1.13,.6-2.35,.86-3.61,.87-3.13,.02-6.27,.03-9.4,.04-.03,0-.06,0-.13,0,.06-.08,.11-.14,.16-.2,.96-1.04,1.93-2.08,2.89-3.12,.13-.14,.28-.18,.46-.18,2.02,0,4.04,0,6.06,0,.31,0,.62-.03,.93-.08,.76-.12,1.32-.68,1.4-1.48,.06-.62,.02-1.26-.02-1.88-.02-.4-.26-.71-.59-.94-.37-.26-.79-.41-1.25-.42-.69-.02-1.37-.03-2.06-.04-.06,0-.11,0-.23,0Z"/>
          <path class="cls-1" d="M149.37,0c-.07,.11-.1,.18-.14,.24-1.68,2.62-3.36,5.24-5.05,7.85-.08,.12-.09,.21,0,.33,1.83,2.82,3.66,5.65,5.48,8.48,.04,.06,.07,.12,.12,.2-.07,0-.13,.01-.18,.01-1.16,0-2.33,0-3.49,0-.22,0-.36-.08-.48-.26-1.81-2.71-3.62-5.42-5.44-8.12-.13-.19-.12-.31,0-.5,1.7-2.65,3.39-5.31,5.07-7.97,.13-.2,.28-.28,.51-.28,1.12,0,2.24,0,3.36,0,.06,0,.12,0,.24,0Z"/>
          <path class="cls-1" d="M136.41,17.14V0h3.54V17.14h-3.54Z"/>
        </g>
      </g>
    </g>
  </g>
</svg>